# xmcd
#
# Track frame offsets: 
#        183
#        17605
#        40853
#        58273
#        82065
#        108833
#        134785
#        158398
#        179813
#        204350
#        227658
#        248360
#        267845
#        288433
#        307965
#
# Disc length: 4427 seconds
#
# Revision: 3
# Processed by: cddbd v1.5.2PL0 Copyright (c) Steve Scherf et al.
# Submitted via: ExactAudioCopyFreeDBPlugin 1.0
#
DISCID=c811490f
DTITLE=齊秦 - 齊秦精選
DYEAR=1990
DGENRE=Pop
TTITLE0=大約在冬季
TTITLE1=冬雨
TTITLE2=獨行
TTITLE3=外面的世界
TTITLE4=埡口
TTITLE5=狼Ⅱ(巡行)
TTITLE6=空白
TTITLE7=太陽雨
TTITLE8=狼
TTITLE9=原來的我
TTITLE10=花祭
TTITLE11=九個太陽
TTITLE12=感
TTITLE13=讓我孤獨的時候還能夠想著妳
TTITLE14=不必勉強
EXTD=
EXTT0=
EXTT1=
EXTT2=
EXTT3=
EXTT4=
EXTT5=
EXTT6=
EXTT7=
EXTT8=
EXTT9=
EXTT10=
EXTT11=
EXTT12=
EXTT13=
EXTT14=
PLAYORDER=
